<?xml version="1.0" encoding="utf-8" standalone="no"?>
<!DOCTYPE svg PUBLIC "-//W3C//DTD SVG 1.1//EN"
  "http://www.w3.org/Graphics/SVG/1.1/DTD/svg11.dtd">
<!-- Created with matplotlib (https://matplotlib.org/) -->
<svg height="216pt" version="1.1" viewBox="0 0 360 216" width="360pt" xmlns="http://www.w3.org/2000/svg" xmlns:xlink="http://www.w3.org/1999/xlink">
 <metadata>
  <rdf:RDF xmlns:cc="http://creativecommons.org/ns#" xmlns:dc="http://purl.org/dc/elements/1.1/" xmlns:rdf="http://www.w3.org/1999/02/22-rdf-syntax-ns#">
   <cc:Work>
    <dc:type rdf:resource="http://purl.org/dc/dcmitype/StillImage"/>
    <dc:date>2023-01-04T14:58:23.097145</dc:date>
    <dc:format>image/svg+xml</dc:format>
    <dc:creator>
     <cc:Agent>
      <dc:title>Matplotlib v3.3.4, https://matplotlib.org/</dc:title>
     </cc:Agent>
    </dc:creator>
   </cc:Work>
  </rdf:RDF>
 </metadata>
 <defs>
  <style type="text/css">*{stroke-linecap:butt;stroke-linejoin:round;}</style>
 </defs>
 <g id="figure_1">
  <g id="patch_1">
   <path d="M 0 216 
L 360 216 
L 360 0 
L 0 0 
z
" style="fill:#ffffff;"/>
  </g>
  <g id="axes_1">
   <g id="patch_2">
    <path d="M 47.72 174.04 
L 349.2 174.04 
L 349.2 14.76 
L 47.72 14.76 
z
" style="fill:#ffffff;"/>
   </g>
   <g id="matplotlib.axis_1">
    <g id="xtick_1">
     <g id="line2d_1">
      <defs>
       <path d="M 0 0 
L 0 3.5 
" id="m4e48b082db" style="stroke:#000000;stroke-width:0.8;"/>
      </defs>
      <g>
       <use style="stroke:#000000;stroke-width:0.8;" x="61.423636" xlink:href="#m4e48b082db" y="174.04"/>
      </g>
     </g>
     <g id="text_1">
      <!-- 0.0 -->
      <g transform="translate(53.472074 188.638438)scale(0.1 -0.1)">
       <defs>
        <path d="M 31.78125 66.40625 
Q 24.171875 66.40625 20.328125 58.90625 
Q 16.5 51.421875 16.5 36.375 
Q 16.5 21.390625 20.328125 13.890625 
Q 24.171875 6.390625 31.78125 6.390625 
Q 39.453125 6.390625 43.28125 13.890625 
Q 47.125 21.390625 47.125 36.375 
Q 47.125 51.421875 43.28125 58.90625 
Q 39.453125 66.40625 31.78125 66.40625 
z
M 31.78125 74.21875 
Q 44.046875 74.21875 50.515625 64.515625 
Q 56.984375 54.828125 56.984375 36.375 
Q 56.984375 17.96875 50.515625 8.265625 
Q 44.046875 -1.421875 31.78125 -1.421875 
Q 19.53125 -1.421875 13.0625 8.265625 
Q 6.59375 17.96875 6.59375 36.375 
Q 6.59375 54.828125 13.0625 64.515625 
Q 19.53125 74.21875 31.78125 74.21875 
z
" id="DejaVuSans-48"/>
        <path d="M 10.6875 12.40625 
L 21 12.40625 
L 21 0 
L 10.6875 0 
z
" id="DejaVuSans-46"/>
       </defs>
       <use xlink:href="#DejaVuSans-48"/>
       <use x="63.623047" xlink:href="#DejaVuSans-46"/>
       <use x="95.410156" xlink:href="#DejaVuSans-48"/>
      </g>
     </g>
    </g>
    <g id="xtick_2">
     <g id="line2d_2">
      <g>
       <use style="stroke:#000000;stroke-width:0.8;" x="116.238182" xlink:href="#m4e48b082db" y="174.04"/>
      </g>
     </g>
     <g id="text_2">
      <!-- 0.2 -->
      <g transform="translate(108.286619 188.638438)scale(0.1 -0.1)">
       <defs>
        <path d="M 19.1875 8.296875 
L 53.609375 8.296875 
L 53.609375 0 
L 7.328125 0 
L 7.328125 8.296875 
Q 12.9375 14.109375 22.625 23.890625 
Q 32.328125 33.6875 34.8125 36.53125 
Q 39.546875 41.84375 41.421875 45.53125 
Q 43.3125 49.21875 43.3125 52.78125 
Q 43.3125 58.59375 39.234375 62.25 
Q 35.15625 65.921875 28.609375 65.921875 
Q 23.96875 65.921875 18.8125 64.3125 
Q 13.671875 62.703125 7.8125 59.421875 
L 7.8125 69.390625 
Q 13.765625 71.78125 18.9375 73 
Q 24.125 74.21875 28.421875 74.21875 
Q 39.75 74.21875 46.484375 68.546875 
Q 53.21875 62.890625 53.21875 53.421875 
Q 53.21875 48.921875 51.53125 44.890625 
Q 49.859375 40.875 45.40625 35.40625 
Q 44.1875 33.984375 37.640625 27.21875 
Q 31.109375 20.453125 19.1875 8.296875 
z
" id="DejaVuSans-50"/>
       </defs>
       <use xlink:href="#DejaVuSans-48"/>
       <use x="63.623047" xlink:href="#DejaVuSans-46"/>
       <use x="95.410156" xlink:href="#DejaVuSans-50"/>
      </g>
     </g>
    </g>
    <g id="xtick_3">
     <g id="line2d_3">
      <g>
       <use style="stroke:#000000;stroke-width:0.8;" x="171.052727" xlink:href="#m4e48b082db" y="174.04"/>
      </g>
     </g>
     <g id="text_3">
      <!-- 0.4 -->
      <g transform="translate(163.101165 188.638438)scale(0.1 -0.1)">
       <defs>
        <path d="M 37.796875 64.3125 
L 12.890625 25.390625 
L 37.796875 25.390625 
z
M 35.203125 72.90625 
L 47.609375 72.90625 
L 47.609375 25.390625 
L 58.015625 25.390625 
L 58.015625 17.1875 
L 47.609375 17.1875 
L 47.609375 0 
L 37.796875 0 
L 37.796875 17.1875 
L 4.890625 17.1875 
L 4.890625 26.703125 
z
" id="DejaVuSans-52"/>
       </defs>
       <use xlink:href="#DejaVuSans-48"/>
       <use x="63.623047" xlink:href="#DejaVuSans-46"/>
       <use x="95.410156" xlink:href="#DejaVuSans-52"/>
      </g>
     </g>
    </g>
    <g id="xtick_4">
     <g id="line2d_4">
      <g>
       <use style="stroke:#000000;stroke-width:0.8;" x="225.867273" xlink:href="#m4e48b082db" y="174.04"/>
      </g>
     </g>
     <g id="text_4">
      <!-- 0.6 -->
      <g transform="translate(217.91571 188.638438)scale(0.1 -0.1)">
       <defs>
        <path d="M 33.015625 40.375 
Q 26.375 40.375 22.484375 35.828125 
Q 18.609375 31.296875 18.609375 23.390625 
Q 18.609375 15.53125 22.484375 10.953125 
Q 26.375 6.390625 33.015625 6.390625 
Q 39.65625 6.390625 43.53125 10.953125 
Q 47.40625 15.53125 47.40625 23.390625 
Q 47.40625 31.296875 43.53125 35.828125 
Q 39.65625 40.375 33.015625 40.375 
z
M 52.59375 71.296875 
L 52.59375 62.3125 
Q 48.875 64.0625 45.09375 64.984375 
Q 41.3125 65.921875 37.59375 65.921875 
Q 27.828125 65.921875 22.671875 59.328125 
Q 17.53125 52.734375 16.796875 39.40625 
Q 19.671875 43.65625 24.015625 45.921875 
Q 28.375 48.1875 33.59375 48.1875 
Q 44.578125 48.1875 50.953125 41.515625 
Q 57.328125 34.859375 57.328125 23.390625 
Q 57.328125 12.15625 50.6875 5.359375 
Q 44.046875 -1.421875 33.015625 -1.421875 
Q 20.359375 -1.421875 13.671875 8.265625 
Q 6.984375 17.96875 6.984375 36.375 
Q 6.984375 53.65625 15.1875 63.9375 
Q 23.390625 74.21875 37.203125 74.21875 
Q 40.921875 74.21875 44.703125 73.484375 
Q 48.484375 72.75 52.59375 71.296875 
z
" id="DejaVuSans-54"/>
       </defs>
       <use xlink:href="#DejaVuSans-48"/>
       <use x="63.623047" xlink:href="#DejaVuSans-46"/>
       <use x="95.410156" xlink:href="#DejaVuSans-54"/>
      </g>
     </g>
    </g>
    <g id="xtick_5">
     <g id="line2d_5">
      <g>
       <use style="stroke:#000000;stroke-width:0.8;" x="280.681818" xlink:href="#m4e48b082db" y="174.04"/>
      </g>
     </g>
     <g id="text_5">
      <!-- 0.8 -->
      <g transform="translate(272.730256 188.638438)scale(0.1 -0.1)">
       <defs>
        <path d="M 31.78125 34.625 
Q 24.75 34.625 20.71875 30.859375 
Q 16.703125 27.09375 16.703125 20.515625 
Q 16.703125 13.921875 20.71875 10.15625 
Q 24.75 6.390625 31.78125 6.390625 
Q 38.8125 6.390625 42.859375 10.171875 
Q 46.921875 13.96875 46.921875 20.515625 
Q 46.921875 27.09375 42.890625 30.859375 
Q 38.875 34.625 31.78125 34.625 
z
M 21.921875 38.8125 
Q 15.578125 40.375 12.03125 44.71875 
Q 8.5 49.078125 8.5 55.328125 
Q 8.5 64.0625 14.71875 69.140625 
Q 20.953125 74.21875 31.78125 74.21875 
Q 42.671875 74.21875 48.875 69.140625 
Q 55.078125 64.0625 55.078125 55.328125 
Q 55.078125 49.078125 51.53125 44.71875 
Q 48 40.375 41.703125 38.8125 
Q 48.828125 37.15625 52.796875 32.3125 
Q 56.78125 27.484375 56.78125 20.515625 
Q 56.78125 9.90625 50.3125 4.234375 
Q 43.84375 -1.421875 31.78125 -1.421875 
Q 19.734375 -1.421875 13.25 4.234375 
Q 6.78125 9.90625 6.78125 20.515625 
Q 6.78125 27.484375 10.78125 32.3125 
Q 14.796875 37.15625 21.921875 38.8125 
z
M 18.3125 54.390625 
Q 18.3125 48.734375 21.84375 45.5625 
Q 25.390625 42.390625 31.78125 42.390625 
Q 38.140625 42.390625 41.71875 45.5625 
Q 45.3125 48.734375 45.3125 54.390625 
Q 45.3125 60.0625 41.71875 63.234375 
Q 38.140625 66.40625 31.78125 66.40625 
Q 25.390625 66.40625 21.84375 63.234375 
Q 18.3125 60.0625 18.3125 54.390625 
z
" id="DejaVuSans-56"/>
       </defs>
       <use xlink:href="#DejaVuSans-48"/>
       <use x="63.623047" xlink:href="#DejaVuSans-46"/>
       <use x="95.410156" xlink:href="#DejaVuSans-56"/>
      </g>
     </g>
    </g>
    <g id="xtick_6">
     <g id="line2d_6">
      <g>
       <use style="stroke:#000000;stroke-width:0.8;" x="335.496364" xlink:href="#m4e48b082db" y="174.04"/>
      </g>
     </g>
     <g id="text_6">
      <!-- 1.0 -->
      <g transform="translate(327.544801 188.638438)scale(0.1 -0.1)">
       <defs>
        <path d="M 12.40625 8.296875 
L 28.515625 8.296875 
L 28.515625 63.921875 
L 10.984375 60.40625 
L 10.984375 69.390625 
L 28.421875 72.90625 
L 38.28125 72.90625 
L 38.28125 8.296875 
L 54.390625 8.296875 
L 54.390625 0 
L 12.40625 0 
z
" id="DejaVuSans-49"/>
       </defs>
       <use xlink:href="#DejaVuSans-49"/>
       <use x="63.623047" xlink:href="#DejaVuSans-46"/>
       <use x="95.410156" xlink:href="#DejaVuSans-48"/>
      </g>
     </g>
    </g>
    <g id="text_7">
     <!-- Time (sec) -->
     <g transform="translate(172.305312 202.316563)scale(0.1 -0.1)">
      <defs>
       <path d="M -0.296875 72.90625 
L 61.375 72.90625 
L 61.375 64.59375 
L 35.5 64.59375 
L 35.5 0 
L 25.59375 0 
L 25.59375 64.59375 
L -0.296875 64.59375 
z
" id="DejaVuSans-84"/>
       <path d="M 9.421875 54.6875 
L 18.40625 54.6875 
L 18.40625 0 
L 9.421875 0 
z
M 9.421875 75.984375 
L 18.40625 75.984375 
L 18.40625 64.59375 
L 9.421875 64.59375 
z
" id="DejaVuSans-105"/>
       <path d="M 52 44.1875 
Q 55.375 50.25 60.0625 53.125 
Q 64.75 56 71.09375 56 
Q 79.640625 56 84.28125 50.015625 
Q 88.921875 44.046875 88.921875 33.015625 
L 88.921875 0 
L 79.890625 0 
L 79.890625 32.71875 
Q 79.890625 40.578125 77.09375 44.375 
Q 74.3125 48.1875 68.609375 48.1875 
Q 61.625 48.1875 57.5625 43.546875 
Q 53.515625 38.921875 53.515625 30.90625 
L 53.515625 0 
L 44.484375 0 
L 44.484375 32.71875 
Q 44.484375 40.625 41.703125 44.40625 
Q 38.921875 48.1875 33.109375 48.1875 
Q 26.21875 48.1875 22.15625 43.53125 
Q 18.109375 38.875 18.109375 30.90625 
L 18.109375 0 
L 9.078125 0 
L 9.078125 54.6875 
L 18.109375 54.6875 
L 18.109375 46.1875 
Q 21.1875 51.21875 25.484375 53.609375 
Q 29.78125 56 35.6875 56 
Q 41.65625 56 45.828125 52.96875 
Q 50 49.953125 52 44.1875 
z
" id="DejaVuSans-109"/>
       <path d="M 56.203125 29.59375 
L 56.203125 25.203125 
L 14.890625 25.203125 
Q 15.484375 15.921875 20.484375 11.0625 
Q 25.484375 6.203125 34.421875 6.203125 
Q 39.59375 6.203125 44.453125 7.46875 
Q 49.3125 8.734375 54.109375 11.28125 
L 54.109375 2.78125 
Q 49.265625 0.734375 44.1875 -0.34375 
Q 39.109375 -1.421875 33.890625 -1.421875 
Q 20.796875 -1.421875 13.15625 6.1875 
Q 5.515625 13.8125 5.515625 26.8125 
Q 5.515625 40.234375 12.765625 48.109375 
Q 20.015625 56 32.328125 56 
Q 43.359375 56 49.78125 48.890625 
Q 56.203125 41.796875 56.203125 29.59375 
z
M 47.21875 32.234375 
Q 47.125 39.59375 43.09375 43.984375 
Q 39.0625 48.390625 32.421875 48.390625 
Q 24.90625 48.390625 20.390625 44.140625 
Q 15.875 39.890625 15.1875 32.171875 
z
" id="DejaVuSans-101"/>
       <path id="DejaVuSans-32"/>
       <path d="M 31 75.875 
Q 24.46875 64.65625 21.28125 53.65625 
Q 18.109375 42.671875 18.109375 31.390625 
Q 18.109375 20.125 21.3125 9.0625 
Q 24.515625 -2 31 -13.1875 
L 23.1875 -13.1875 
Q 15.875 -1.703125 12.234375 9.375 
Q 8.59375 20.453125 8.59375 31.390625 
Q 8.59375 42.28125 12.203125 53.3125 
Q 15.828125 64.359375 23.1875 75.875 
z
" id="DejaVuSans-40"/>
       <path d="M 44.28125 53.078125 
L 44.28125 44.578125 
Q 40.484375 46.53125 36.375 47.5 
Q 32.28125 48.484375 27.875 48.484375 
Q 21.1875 48.484375 17.84375 46.4375 
Q 14.5 44.390625 14.5 40.28125 
Q 14.5 37.15625 16.890625 35.375 
Q 19.28125 33.59375 26.515625 31.984375 
L 29.59375 31.296875 
Q 39.15625 29.25 43.1875 25.515625 
Q 47.21875 21.78125 47.21875 15.09375 
Q 47.21875 7.46875 41.1875 3.015625 
Q 35.15625 -1.421875 24.609375 -1.421875 
Q 20.21875 -1.421875 15.453125 -0.5625 
Q 10.6875 0.296875 5.421875 2 
L 5.421875 11.28125 
Q 10.40625 8.6875 15.234375 7.390625 
Q 20.0625 6.109375 24.8125 6.109375 
Q 31.15625 6.109375 34.5625 8.28125 
Q 37.984375 10.453125 37.984375 14.40625 
Q 37.984375 18.0625 35.515625 20.015625 
Q 33.0625 21.96875 24.703125 23.78125 
L 21.578125 24.515625 
Q 13.234375 26.265625 9.515625 29.90625 
Q 5.8125 33.546875 5.8125 39.890625 
Q 5.8125 47.609375 11.28125 51.796875 
Q 16.75 56 26.8125 56 
Q 31.78125 56 36.171875 55.265625 
Q 40.578125 54.546875 44.28125 53.078125 
z
" id="DejaVuSans-115"/>
       <path d="M 48.78125 52.59375 
L 48.78125 44.1875 
Q 44.96875 46.296875 41.140625 47.34375 
Q 37.3125 48.390625 33.40625 48.390625 
Q 24.65625 48.390625 19.8125 42.84375 
Q 14.984375 37.3125 14.984375 27.296875 
Q 14.984375 17.28125 19.8125 11.734375 
Q 24.65625 6.203125 33.40625 6.203125 
Q 37.3125 6.203125 41.140625 7.25 
Q 44.96875 8.296875 48.78125 10.40625 
L 48.78125 2.09375 
Q 45.015625 0.34375 40.984375 -0.53125 
Q 36.96875 -1.421875 32.421875 -1.421875 
Q 20.0625 -1.421875 12.78125 6.34375 
Q 5.515625 14.109375 5.515625 27.296875 
Q 5.515625 40.671875 12.859375 48.328125 
Q 20.21875 56 33.015625 56 
Q 37.15625 56 41.109375 55.140625 
Q 45.0625 54.296875 48.78125 52.59375 
z
" id="DejaVuSans-99"/>
       <path d="M 8.015625 75.875 
L 15.828125 75.875 
Q 23.140625 64.359375 26.78125 53.3125 
Q 30.421875 42.28125 30.421875 31.390625 
Q 30.421875 20.453125 26.78125 9.375 
Q 23.140625 -1.703125 15.828125 -13.1875 
L 8.015625 -13.1875 
Q 14.5 -2 17.703125 9.0625 
Q 20.90625 20.125 20.90625 31.390625 
Q 20.90625 42.671875 17.703125 53.65625 
Q 14.5 64.65625 8.015625 75.875 
z
" id="DejaVuSans-41"/>
      </defs>
      <use xlink:href="#DejaVuSans-84"/>
      <use x="57.958984" xlink:href="#DejaVuSans-105"/>
      <use x="85.742188" xlink:href="#DejaVuSans-109"/>
      <use x="183.154297" xlink:href="#DejaVuSans-101"/>
      <use x="244.677734" xlink:href="#DejaVuSans-32"/>
      <use x="276.464844" xlink:href="#DejaVuSans-40"/>
      <use x="315.478516" xlink:href="#DejaVuSans-115"/>
      <use x="367.578125" xlink:href="#DejaVuSans-101"/>
      <use x="429.101562" xlink:href="#DejaVuSans-99"/>
      <use x="484.082031" xlink:href="#DejaVuSans-41"/>
     </g>
    </g>
   </g>
   <g id="matplotlib.axis_2">
    <g id="ytick_1">
     <g id="line2d_7">
      <defs>
       <path d="M 0 0 
L -3.5 0 
" id="m4156791ab1" style="stroke:#000000;stroke-width:0.8;"/>
      </defs>
      <g>
       <use style="stroke:#000000;stroke-width:0.8;" x="47.72" xlink:href="#m4156791ab1" y="159.56"/>
      </g>
     </g>
     <g id="text_8">
      <!-- 0.0 -->
      <g transform="translate(24.816875 163.359219)scale(0.1 -0.1)">
       <use xlink:href="#DejaVuSans-48"/>
       <use x="63.623047" xlink:href="#DejaVuSans-46"/>
       <use x="95.410156" xlink:href="#DejaVuSans-48"/>
      </g>
     </g>
    </g>
    <g id="ytick_2">
     <g id="line2d_8">
      <g>
       <use style="stroke:#000000;stroke-width:0.8;" x="47.72" xlink:href="#m4156791ab1" y="130.6"/>
      </g>
     </g>
     <g id="text_9">
      <!-- 0.2 -->
      <g transform="translate(24.816875 134.399219)scale(0.1 -0.1)">
       <use xlink:href="#DejaVuSans-48"/>
       <use x="63.623047" xlink:href="#DejaVuSans-46"/>
       <use x="95.410156" xlink:href="#DejaVuSans-50"/>
      </g>
     </g>
    </g>
    <g id="ytick_3">
     <g id="line2d_9">
      <g>
       <use style="stroke:#000000;stroke-width:0.8;" x="47.72" xlink:href="#m4156791ab1" y="101.64"/>
      </g>
     </g>
     <g id="text_10">
      <!-- 0.4 -->
      <g transform="translate(24.816875 105.439219)scale(0.1 -0.1)">
       <use xlink:href="#DejaVuSans-48"/>
       <use x="63.623047" xlink:href="#DejaVuSans-46"/>
       <use x="95.410156" xlink:href="#DejaVuSans-52"/>
      </g>
     </g>
    </g>
    <g id="ytick_4">
     <g id="line2d_10">
      <g>
       <use style="stroke:#000000;stroke-width:0.8;" x="47.72" xlink:href="#m4156791ab1" y="72.68"/>
      </g>
     </g>
     <g id="text_11">
      <!-- 0.6 -->
      <g transform="translate(24.816875 76.479219)scale(0.1 -0.1)">
       <use xlink:href="#DejaVuSans-48"/>
       <use x="63.623047" xlink:href="#DejaVuSans-46"/>
       <use x="95.410156" xlink:href="#DejaVuSans-54"/>
      </g>
     </g>
    </g>
    <g id="ytick_5">
     <g id="line2d_11">
      <g>
       <use style="stroke:#000000;stroke-width:0.8;" x="47.72" xlink:href="#m4156791ab1" y="43.72"/>
      </g>
     </g>
     <g id="text_12">
      <!-- 0.8 -->
      <g transform="translate(24.816875 47.519219)scale(0.1 -0.1)">
       <use xlink:href="#DejaVuSans-48"/>
       <use x="63.623047" xlink:href="#DejaVuSans-46"/>
       <use x="95.410156" xlink:href="#DejaVuSans-56"/>
      </g>
     </g>
    </g>
    <g id="ytick_6">
     <g id="line2d_12">
      <g>
       <use style="stroke:#000000;stroke-width:0.8;" x="47.72" xlink:href="#m4156791ab1" y="14.76"/>
      </g>
     </g>
     <g id="text_13">
      <!-- 1.0 -->
      <g transform="translate(24.816875 18.559219)scale(0.1 -0.1)">
       <use xlink:href="#DejaVuSans-49"/>
       <use x="63.623047" xlink:href="#DejaVuSans-46"/>
       <use x="95.410156" xlink:href="#DejaVuSans-48"/>
      </g>
     </g>
    </g>
    <g id="text_14">
     <!-- Injected Signal -->
     <g transform="translate(18.737188 131.417969)rotate(-90)scale(0.1 -0.1)">
      <defs>
       <path d="M 9.8125 72.90625 
L 19.671875 72.90625 
L 19.671875 0 
L 9.8125 0 
z
" id="DejaVuSans-73"/>
       <path d="M 54.890625 33.015625 
L 54.890625 0 
L 45.90625 0 
L 45.90625 32.71875 
Q 45.90625 40.484375 42.875 44.328125 
Q 39.84375 48.1875 33.796875 48.1875 
Q 26.515625 48.1875 22.3125 43.546875 
Q 18.109375 38.921875 18.109375 30.90625 
L 18.109375 0 
L 9.078125 0 
L 9.078125 54.6875 
L 18.109375 54.6875 
L 18.109375 46.1875 
Q 21.34375 51.125 25.703125 53.5625 
Q 30.078125 56 35.796875 56 
Q 45.21875 56 50.046875 50.171875 
Q 54.890625 44.34375 54.890625 33.015625 
z
" id="DejaVuSans-110"/>
       <path d="M 9.421875 54.6875 
L 18.40625 54.6875 
L 18.40625 -0.984375 
Q 18.40625 -11.421875 14.421875 -16.109375 
Q 10.453125 -20.796875 1.609375 -20.796875 
L -1.8125 -20.796875 
L -1.8125 -13.1875 
L 0.59375 -13.1875 
Q 5.71875 -13.1875 7.5625 -10.8125 
Q 9.421875 -8.453125 9.421875 -0.984375 
z
M 9.421875 75.984375 
L 18.40625 75.984375 
L 18.40625 64.59375 
L 9.421875 64.59375 
z
" id="DejaVuSans-106"/>
       <path d="M 18.3125 70.21875 
L 18.3125 54.6875 
L 36.8125 54.6875 
L 36.8125 47.703125 
L 18.3125 47.703125 
L 18.3125 18.015625 
Q 18.3125 11.328125 20.140625 9.421875 
Q 21.96875 7.515625 27.59375 7.515625 
L 36.8125 7.515625 
L 36.8125 0 
L 27.59375 0 
Q 17.1875 0 13.234375 3.875 
Q 9.28125 7.765625 9.28125 18.015625 
L 9.28125 47.703125 
L 2.6875 47.703125 
L 2.6875 54.6875 
L 9.28125 54.6875 
L 9.28125 70.21875 
z
" id="DejaVuSans-116"/>
       <path d="M 45.40625 46.390625 
L 45.40625 75.984375 
L 54.390625 75.984375 
L 54.390625 0 
L 45.40625 0 
L 45.40625 8.203125 
Q 42.578125 3.328125 38.25 0.953125 
Q 33.9375 -1.421875 27.875 -1.421875 
Q 17.96875 -1.421875 11.734375 6.484375 
Q 5.515625 14.40625 5.515625 27.296875 
Q 5.515625 40.1875 11.734375 48.09375 
Q 17.96875 56 27.875 56 
Q 33.9375 56 38.25 53.625 
Q 42.578125 51.265625 45.40625 46.390625 
z
M 14.796875 27.296875 
Q 14.796875 17.390625 18.875 11.75 
Q 22.953125 6.109375 30.078125 6.109375 
Q 37.203125 6.109375 41.296875 11.75 
Q 45.40625 17.390625 45.40625 27.296875 
Q 45.40625 37.203125 41.296875 42.84375 
Q 37.203125 48.484375 30.078125 48.484375 
Q 22.953125 48.484375 18.875 42.84375 
Q 14.796875 37.203125 14.796875 27.296875 
z
" id="DejaVuSans-100"/>
       <path d="M 53.515625 70.515625 
L 53.515625 60.890625 
Q 47.90625 63.578125 42.921875 64.890625 
Q 37.9375 66.21875 33.296875 66.21875 
Q 25.25 66.21875 20.875 63.09375 
Q 16.5 59.96875 16.5 54.203125 
Q 16.5 49.359375 19.40625 46.890625 
Q 22.3125 44.4375 30.421875 42.921875 
L 36.375 41.703125 
Q 47.40625 39.59375 52.65625 34.296875 
Q 57.90625 29 57.90625 20.125 
Q 57.90625 9.515625 50.796875 4.046875 
Q 43.703125 -1.421875 29.984375 -1.421875 
Q 24.8125 -1.421875 18.96875 -0.25 
Q 13.140625 0.921875 6.890625 3.21875 
L 6.890625 13.375 
Q 12.890625 10.015625 18.65625 8.296875 
Q 24.421875 6.59375 29.984375 6.59375 
Q 38.421875 6.59375 43.015625 9.90625 
Q 47.609375 13.234375 47.609375 19.390625 
Q 47.609375 24.75 44.3125 27.78125 
Q 41.015625 30.8125 33.5 32.328125 
L 27.484375 33.5 
Q 16.453125 35.6875 11.515625 40.375 
Q 6.59375 45.0625 6.59375 53.421875 
Q 6.59375 63.09375 13.40625 68.65625 
Q 20.21875 74.21875 32.171875 74.21875 
Q 37.3125 74.21875 42.625 73.28125 
Q 47.953125 72.359375 53.515625 70.515625 
z
" id="DejaVuSans-83"/>
       <path d="M 45.40625 27.984375 
Q 45.40625 37.75 41.375 43.109375 
Q 37.359375 48.484375 30.078125 48.484375 
Q 22.859375 48.484375 18.828125 43.109375 
Q 14.796875 37.75 14.796875 27.984375 
Q 14.796875 18.265625 18.828125 12.890625 
Q 22.859375 7.515625 30.078125 7.515625 
Q 37.359375 7.515625 41.375 12.890625 
Q 45.40625 18.265625 45.40625 27.984375 
z
M 54.390625 6.78125 
Q 54.390625 -7.171875 48.1875 -13.984375 
Q 42 -20.796875 29.203125 -20.796875 
Q 24.46875 -20.796875 20.265625 -20.09375 
Q 16.0625 -19.390625 12.109375 -17.921875 
L 12.109375 -9.1875 
Q 16.0625 -11.328125 19.921875 -12.34375 
Q 23.78125 -13.375 27.78125 -13.375 
Q 36.625 -13.375 41.015625 -8.765625 
Q 45.40625 -4.15625 45.40625 5.171875 
L 45.40625 9.625 
Q 42.625 4.78125 38.28125 2.390625 
Q 33.9375 0 27.875 0 
Q 17.828125 0 11.671875 7.65625 
Q 5.515625 15.328125 5.515625 27.984375 
Q 5.515625 40.671875 11.671875 48.328125 
Q 17.828125 56 27.875 56 
Q 33.9375 56 38.28125 53.609375 
Q 42.625 51.21875 45.40625 46.390625 
L 45.40625 54.6875 
L 54.390625 54.6875 
z
" id="DejaVuSans-103"/>
       <path d="M 34.28125 27.484375 
Q 23.390625 27.484375 19.1875 25 
Q 14.984375 22.515625 14.984375 16.5 
Q 14.984375 11.71875 18.140625 8.90625 
Q 21.296875 6.109375 26.703125 6.109375 
Q 34.1875 6.109375 38.703125 11.40625 
Q 43.21875 16.703125 43.21875 25.484375 
L 43.21875 27.484375 
z
M 52.203125 31.203125 
L 52.203125 0 
L 43.21875 0 
L 43.21875 8.296875 
Q 40.140625 3.328125 35.546875 0.953125 
Q 30.953125 -1.421875 24.3125 -1.421875 
Q 15.921875 -1.421875 10.953125 3.296875 
Q 6 8.015625 6 15.921875 
Q 6 25.140625 12.171875 29.828125 
Q 18.359375 34.515625 30.609375 34.515625 
L 43.21875 34.515625 
L 43.21875 35.40625 
Q 43.21875 41.609375 39.140625 45 
Q 35.0625 48.390625 27.6875 48.390625 
Q 23 48.390625 18.546875 47.265625 
Q 14.109375 46.140625 10.015625 43.890625 
L 10.015625 52.203125 
Q 14.9375 54.109375 19.578125 55.046875 
Q 24.21875 56 28.609375 56 
Q 40.484375 56 46.34375 49.84375 
Q 52.203125 43.703125 52.203125 31.203125 
z
" id="DejaVuSans-97"/>
       <path d="M 9.421875 75.984375 
L 18.40625 75.984375 
L 18.40625 0 
L 9.421875 0 
z
" id="DejaVuSans-108"/>
      </defs>
      <use xlink:href="#DejaVuSans-73"/>
      <use x="29.492188" xlink:href="#DejaVuSans-110"/>
      <use x="92.871094" xlink:href="#DejaVuSans-106"/>
      <use x="120.654297" xlink:href="#DejaVuSans-101"/>
      <use x="182.177734" xlink:href="#DejaVuSans-99"/>
      <use x="237.158203" xlink:href="#DejaVuSans-116"/>
      <use x="276.367188" xlink:href="#DejaVuSans-101"/>
      <use x="337.890625" xlink:href="#DejaVuSans-100"/>
      <use x="401.367188" xlink:href="#DejaVuSans-32"/>
      <use x="433.154297" xlink:href="#DejaVuSans-83"/>
      <use x="496.630859" xlink:href="#DejaVuSans-105"/>
      <use x="524.414062" xlink:href="#DejaVuSans-103"/>
      <use x="587.890625" xlink:href="#DejaVuSans-110"/>
      <use x="651.269531" xlink:href="#DejaVuSans-97"/>
      <use x="712.548828" xlink:href="#DejaVuSans-108"/>
     </g>
    </g>
   </g>
   <g id="line2d_13">
    <path clip-path="url(#p6ef8224e7b)" d="M 61.423636 51.219651 
L 61.697709 70.052594 
L 61.971782 65.377728 
L 62.245855 122.588476 
L 62.519927 76.555883 
L 62.794 60.472243 
L 63.068073 127.807723 
L 63.890291 61.231837 
L 64.164364 108.596076 
L 64.438436 113.267666 
L 64.712509 99.865132 
L 64.986582 125.51443 
L 65.260655 118.93408 
L 65.534727 97.051504 
L 65.8088 93.771545 
L 66.082873 116.95393 
L 66.356945 63.188946 
L 66.631018 124.527713 
L 66.905091 46.338891 
L 67.179164 102.165898 
L 67.453236 76.96884 
L 67.727309 76.619443 
L 68.001382 79.808052 
L 68.275455 112.359134 
L 68.549527 114.475412 
L 68.8236 50.758928 
L 69.097673 123.467074 
L 69.371745 46.841429 
L 69.645818 48.037569 
L 69.919891 88.063679 
L 70.468036 51.415067 
L 70.742109 115.495371 
L 71.016182 119.968521 
L 71.290255 82.321849 
L 71.564327 99.293659 
L 71.8384 65.115948 
L 72.112473 112.254864 
L 72.386545 112.074442 
L 72.660618 94.245264 
L 72.934691 129.831589 
L 73.208764 118.50999 
L 73.756909 62.860732 
L 74.030982 55.763084 
L 74.305055 97.387451 
L 74.579127 53.993549 
L 74.8532 125.143156 
L 75.127273 112.068239 
L 75.401345 127.170099 
L 75.675418 124.583056 
L 75.949491 46.195827 
L 76.223564 127.562245 
L 76.497636 85.224882 
L 76.771709 116.737978 
L 77.045782 53.94123 
L 77.319855 121.531207 
L 77.593927 61.684483 
L 77.868 106.553289 
L 78.142073 69.609764 
L 78.416145 84.999078 
L 78.690218 126.548828 
L 78.964291 126.368733 
L 79.238364 129.961572 
L 79.786509 52.762544 
L 80.608727 128.990927 
L 80.8828 61.556363 
L 81.156873 109.614577 
L 81.430945 89.737858 
L 81.705018 47.557233 
L 81.979091 101.920872 
L 82.253164 55.159932 
L 82.527236 94.294366 
L 82.801309 109.73088 
L 83.075382 54.538962 
L 83.349455 51.089184 
L 83.623527 120.441729 
L 83.8976 115.422683 
L 84.171673 46.213119 
L 84.445745 79.529347 
L 84.719818 84.456758 
L 84.993891 112.21502 
L 85.542036 74.508233 
L 85.816109 95.3411 
L 86.090182 60.85189 
L 86.364255 85.198929 
L 86.638327 83.277497 
L 86.9124 116.213716 
L 87.186473 106.557654 
L 87.460545 47.517202 
L 87.734618 88.581275 
L 88.008691 59.498188 
L 88.556836 112.535154 
L 88.830909 94.770866 
L 89.104982 62.503711 
L 89.379055 46.2226 
L 89.653127 78.450224 
L 89.9272 61.893442 
L 90.201273 123.719077 
L 90.475345 116.115138 
L 90.749418 70.548996 
L 91.023491 52.03634 
L 91.571636 119.412872 
L 91.845709 53.353047 
L 92.119782 45.144902 
L 92.393855 101.34887 
L 92.667927 51.53219 
L 92.942 112.076703 
L 93.216073 100.532062 
L 93.490145 64.153541 
L 93.764218 48.66706 
L 94.038291 79.881432 
L 94.312364 68.975539 
L 94.586436 111.649808 
L 94.860509 111.975705 
L 95.134582 103.288691 
L 95.408655 104.686892 
L 95.9568 80.788421 
L 96.230873 75.28469 
L 96.504945 92.832943 
L 96.779018 88.067894 
L 97.053091 115.252366 
L 97.327164 73.062721 
L 97.601236 114.752676 
L 98.149382 54.879762 
L 98.423455 124.50658 
L 98.697527 82.210001 
L 98.9716 82.530165 
L 99.519745 52.647574 
L 99.793818 100.261944 
L 100.341964 123.409778 
L 100.616036 48.064294 
L 100.890109 54.292978 
L 101.438255 126.367076 
L 101.712327 53.937044 
L 101.9864 69.185878 
L 102.260473 70.30072 
L 102.534545 79.819475 
L 102.808618 57.95379 
L 103.082691 63.215762 
L 103.356764 95.445289 
L 103.630836 91.904487 
L 103.904909 60.015337 
L 104.178982 109.503663 
L 104.727127 89.977101 
L 105.0012 45.732334 
L 105.275273 101.75069 
L 105.549345 56.633802 
L 105.823418 51.370222 
L 106.097491 106.225677 
L 106.371564 125.463574 
L 106.645636 57.180604 
L 106.919709 121.241684 
L 107.193782 91.751087 
L 107.467855 81.056295 
L 107.741927 52.39431 
L 108.016 102.433595 
L 108.290073 104.227937 
L 108.564145 68.823781 
L 108.838218 82.899842 
L 109.112291 86.120755 
L 109.386364 62.308523 
L 109.660436 48.489114 
L 110.208582 119.498549 
L 110.482655 83.027324 
L 110.756727 71.256799 
L 111.0308 103.555354 
L 111.304873 70.12099 
L 111.578945 73.618045 
L 111.853018 119.621944 
L 112.127091 83.126588 
L 112.401164 63.774262 
L 112.675236 53.680548 
L 112.949309 61.239722 
L 113.223382 63.995612 
L 113.497455 73.397706 
L 113.771527 51.222711 
L 114.0456 110.700384 
L 114.319673 55.014862 
L 114.593745 84.813778 
L 114.867818 90.063216 
L 115.141891 112.672773 
L 115.415964 45.817264 
L 115.690036 72.177659 
L 115.964109 85.987334 
L 116.238182 91.614749 
L 116.512255 50.46792 
L 116.786327 89.745946 
L 117.0604 78.49282 
L 117.334473 118.871732 
L 117.608545 83.153241 
L 117.882618 118.161091 
L 118.156691 120.836923 
L 118.430764 105.166648 
L 118.704836 53.483492 
L 118.978909 121.498917 
L 119.252982 71.997463 
L 119.527055 91.898325 
L 119.801127 96.316932 
L 120.349273 78.247952 
L 120.623345 86.05471 
L 120.897418 49.808968 
L 121.171491 73.981081 
L 121.445564 55.712652 
L 121.719636 111.738121 
L 121.993709 60.091677 
L 122.815927 114.528445 
L 123.09 87.921343 
L 123.364073 123.081951 
L 123.638145 67.273136 
L 123.912218 98.191446 
L 124.186291 97.988446 
L 124.460364 105.616063 
L 124.734436 55.307494 
L 125.008509 107.947113 
L 125.282582 89.671738 
L 125.556655 126.158385 
L 125.830727 67.267229 
L 126.378873 120.690456 
L 126.652945 120.885052 
L 127.201091 73.080687 
L 127.475164 74.943332 
L 127.749236 119.390314 
L 128.297382 47.11818 
L 128.571455 90.700894 
L 128.845527 113.755508 
L 129.1196 46.340342 
L 129.393673 48.185264 
L 129.667745 128.645014 
L 130.215891 67.183866 
L 130.489964 114.745524 
L 130.764036 106.472836 
L 131.038109 110.465316 
L 131.312182 89.128898 
L 131.586255 53.53548 
L 131.860327 90.251977 
L 132.1344 94.826438 
L 132.408473 51.779432 
L 132.682545 125.207128 
L 132.956618 66.50816 
L 133.230691 76.872277 
L 133.778836 126.754401 
L 134.052909 128.992159 
L 134.326982 125.462762 
L 134.601055 129.082785 
L 134.875127 61.843779 
L 135.1492 105.66482 
L 135.423273 43.971533 
L 135.697345 125.132043 
L 135.971418 88.854866 
L 136.245491 71.143918 
L 136.519564 80.483795 
L 136.793636 121.276672 
L 137.067709 116.554818 
L 137.341782 121.855389 
L 137.615855 129.432549 
L 137.889927 64.988805 
L 138.164 129.602323 
L 138.438073 80.497044 
L 138.712145 111.867578 
L 138.986218 128.410663 
L 139.260291 64.879965 
L 139.534364 71.610644 
L 139.808436 70.822974 
L 140.082509 64.15349 
L 140.356582 95.097912 
L 140.630655 74.306049 
L 140.904727 127.779468 
L 141.1788 99.988205 
L 141.452873 106.217658 
L 141.726945 119.133647 
L 142.549164 47.101872 
L 142.823236 106.500777 
L 143.097309 54.786196 
L 143.371382 123.804269 
L 143.645455 43.900111 
L 143.919527 113.517741 
L 144.1936 112.516269 
L 144.467673 102.019297 
L 144.741745 120.086695 
L 145.015818 68.432231 
L 145.289891 74.7113 
L 145.563964 92.257453 
L 145.838036 56.493869 
L 146.112109 113.555145 
L 146.386182 79.417463 
L 146.660255 70.218069 
L 146.934327 124.492373 
L 147.2084 62.396763 
L 147.482473 45.443168 
L 147.756545 102.370784 
L 148.030618 82.985509 
L 148.304691 128.402112 
L 148.578764 112.012109 
L 148.852836 54.246603 
L 149.126909 61.673048 
L 149.675055 113.754273 
L 149.949127 51.301828 
L 150.2232 72.300263 
L 150.497273 105.283378 
L 150.771345 94.902451 
L 151.045418 100.395694 
L 151.319491 125.390346 
L 151.593564 126.247293 
L 151.867636 90.041509 
L 152.141709 98.538733 
L 152.415782 120.261508 
L 152.689855 86.875821 
L 152.963927 125.936807 
L 153.238 100.037868 
L 153.512073 101.733421 
L 153.786145 111.148771 
L 154.060218 72.610422 
L 154.334291 117.00221 
L 154.608364 101.784033 
L 154.882436 123.177254 
L 155.156509 64.78884 
L 155.430582 121.255582 
L 155.704655 60.289691 
L 155.978727 102.371408 
L 156.2528 91.732925 
L 156.800945 98.213777 
L 157.075018 71.196877 
L 157.349091 61.521727 
L 157.623164 119.15272 
L 157.897236 105.074011 
L 158.171309 118.851469 
L 158.445382 122.577787 
L 158.719455 59.822837 
L 158.993527 56.719278 
L 159.2676 114.405186 
L 159.815745 61.144389 
L 160.089818 104.970992 
L 160.363891 45.390094 
L 160.637964 129.721899 
L 160.912036 124.473746 
L 161.186109 106.432067 
L 161.460182 49.29297 
L 161.734255 79.885966 
L 162.008327 89.626607 
L 162.2824 82.159028 
L 162.556473 84.658904 
L 162.830545 100.742243 
L 163.104618 45.932482 
L 163.378691 93.706399 
L 163.652764 53.247137 
L 163.926836 56.872063 
L 164.200909 69.571981 
L 164.474982 118.769381 
L 164.749055 69.964874 
L 165.023127 125.529471 
L 165.2972 95.175239 
L 165.571273 80.504876 
L 165.845345 75.22904 
L 166.119418 111.542943 
L 166.393491 125.693904 
L 166.667564 73.012647 
L 166.941636 129.931911 
L 167.215709 75.131836 
L 167.489782 60.791732 
L 167.763855 127.518934 
L 168.037927 112.948667 
L 168.312 71.87323 
L 168.586073 118.53329 
L 168.860145 104.356449 
L 169.134218 124.718131 
L 169.408291 119.041345 
L 169.956436 127.633029 
L 170.230509 62.61664 
L 170.504582 87.9289 
L 170.778655 71.532942 
L 171.052727 72.086891 
L 171.3268 91.559684 
L 171.600873 95.494352 
L 172.149018 59.099853 
L 172.423091 118.426111 
L 172.697164 100.421579 
L 172.971236 112.309989 
L 173.245309 111.467871 
L 173.519382 90.033173 
L 174.067527 113.760199 
L 174.615673 70.035462 
L 174.889745 104.716353 
L 175.163818 97.206517 
L 175.437891 85.148326 
L 175.986036 54.279795 
L 176.260109 124.671794 
L 176.534182 52.19308 
L 176.808255 85.267181 
L 177.082327 101.850306 
L 177.3564 94.702275 
L 177.630473 98.072793 
L 177.904545 103.641305 
L 178.178618 63.167657 
L 178.452691 120.069837 
L 178.726764 84.35005 
L 179.000836 111.1463 
L 179.274909 68.374834 
L 179.548982 66.452331 
L 179.823055 56.005889 
L 180.097127 129.910949 
L 180.3712 117.678286 
L 180.645273 78.738364 
L 180.919345 66.832451 
L 181.193418 127.347975 
L 181.467491 80.827782 
L 181.741564 118.466202 
L 182.015636 49.400329 
L 182.289709 105.54707 
L 182.563782 117.831924 
L 182.837855 110.457709 
L 183.111927 66.094315 
L 183.386 86.207022 
L 183.660073 60.624994 
L 183.934145 77.054448 
L 184.208218 111.779484 
L 184.482291 56.671898 
L 184.756364 103.553309 
L 185.030436 95.327131 
L 185.304509 63.004094 
L 185.578582 105.56954 
L 186.4008 123.782023 
L 186.674873 63.595985 
L 187.223018 86.431866 
L 187.497091 93.303743 
L 187.771164 58.637196 
L 188.319309 129.238158 
L 188.593382 97.771672 
L 188.867455 91.673451 
L 189.141527 127.362066 
L 189.689673 89.921613 
L 189.963745 122.789724 
L 190.237818 109.935444 
L 190.511891 73.458851 
L 190.785964 62.644619 
L 191.060036 120.667502 
L 191.334109 66.695137 
L 191.608182 124.445756 
L 191.882255 51.922683 
L 192.4304 95.070837 
L 192.704473 70.689146 
L 192.978545 127.488301 
L 193.252618 54.563039 
L 193.526691 43.816442 
L 193.800764 74.179277 
L 194.074836 69.393093 
L 194.348909 79.662914 
L 194.622982 106.318006 
L 194.897055 102.44157 
L 195.4452 87.518157 
L 195.719273 75.749 
L 195.993345 110.792236 
L 196.267418 128.083823 
L 196.541491 54.615729 
L 196.815564 124.979123 
L 197.089636 74.785463 
L 197.363709 125.88679 
L 197.637782 77.340615 
L 197.911855 87.690777 
L 198.185927 115.064089 
L 198.46 48.201365 
L 198.734073 51.186758 
L 199.008145 90.679441 
L 199.282218 70.70138 
L 199.556291 109.241852 
L 199.830364 87.005847 
L 200.104436 108.376687 
L 200.652582 114.32205 
L 200.926655 87.3803 
L 201.200727 76.345193 
L 201.4748 71.235745 
L 201.748873 74.692572 
L 202.022945 84.893051 
L 202.297018 47.7129 
L 202.571091 124.619112 
L 202.845164 61.262813 
L 203.119236 128.07053 
L 203.393309 77.45791 
L 203.667382 119.380414 
L 203.941455 64.760363 
L 204.215527 70.687197 
L 204.4896 63.36245 
L 204.763673 85.368624 
L 205.037745 130.101592 
L 205.311818 48.546668 
L 205.585891 85.8996 
L 205.859964 80.838788 
L 206.134036 87.279751 
L 206.408109 101.958618 
L 206.682182 57.224675 
L 206.956255 93.742631 
L 207.230327 61.447455 
L 207.5044 110.430225 
L 207.778473 62.650458 
L 208.052545 53.924601 
L 208.326618 60.99886 
L 208.600691 83.258357 
L 208.874764 57.255367 
L 209.148836 78.261649 
L 209.696982 74.016023 
L 209.971055 127.606121 
L 210.5192 66.258105 
L 210.793273 46.838544 
L 211.067345 119.729667 
L 211.341418 111.513939 
L 211.615491 82.951889 
L 211.889564 74.734818 
L 212.163636 97.181653 
L 212.437709 130.033069 
L 212.711782 83.405861 
L 212.985855 116.684152 
L 213.259927 96.199851 
L 213.534 88.255301 
L 213.808073 93.752604 
L 214.082145 113.036378 
L 214.356218 62.386135 
L 214.630291 118.438521 
L 214.904364 125.04583 
L 215.178436 89.452546 
L 215.452509 128.427808 
L 215.726582 60.681016 
L 216.000655 103.973389 
L 216.274727 77.16757 
L 216.5488 88.232654 
L 216.822873 79.529239 
L 217.096945 55.38231 
L 217.371018 45.716545 
L 217.645091 66.074413 
L 217.919164 110.592919 
L 218.193236 74.752117 
L 218.467309 80.952988 
L 219.015455 47.647019 
L 219.289527 114.179732 
L 219.5636 83.220292 
L 219.837673 117.638049 
L 220.111745 82.931626 
L 220.385818 85.433911 
L 220.659891 80.922769 
L 220.933964 114.529452 
L 221.208036 118.621776 
L 221.482109 83.521996 
L 221.756182 66.955711 
L 222.030255 69.467757 
L 222.304327 113.65507 
L 222.5784 63.024931 
L 222.852473 121.770083 
L 223.126545 62.434005 
L 223.674691 118.161816 
L 223.948764 71.250751 
L 224.222836 63.765985 
L 224.496909 63.554575 
L 224.770982 66.54234 
L 225.045055 100.554155 
L 225.319127 47.638738 
L 225.5932 101.186407 
L 225.867273 107.193141 
L 226.415418 59.621569 
L 226.963564 127.578393 
L 227.237636 84.18693 
L 227.511709 118.312313 
L 227.785782 59.980743 
L 228.059855 102.790128 
L 228.333927 88.231669 
L 228.608 55.069757 
L 229.156145 122.630282 
L 229.430218 75.916684 
L 229.704291 120.912775 
L 229.978364 79.660222 
L 230.252436 92.410861 
L 230.526509 65.606042 
L 231.074655 78.342355 
L 231.6228 113.758508 
L 231.896873 95.840431 
L 232.170945 56.009945 
L 232.445018 69.654997 
L 232.719091 126.200001 
L 232.993164 127.233012 
L 233.267236 68.378438 
L 233.541309 66.1723 
L 233.815382 47.12497 
L 234.089455 99.816582 
L 234.363527 53.716305 
L 234.6376 59.504389 
L 234.911673 57.682097 
L 235.185745 45.621964 
L 235.459818 49.668288 
L 235.733891 114.000287 
L 236.007964 76.386944 
L 236.282036 105.020441 
L 236.556109 62.086898 
L 236.830182 80.187264 
L 237.104255 49.603506 
L 237.378327 104.346312 
L 237.6524 107.95494 
L 237.926473 102.149329 
L 238.200545 55.643219 
L 238.474618 64.609535 
L 238.748691 53.503341 
L 239.022764 128.513286 
L 239.570909 106.456702 
L 239.844982 56.541803 
L 240.119055 99.13264 
L 240.393127 50.521622 
L 240.6672 116.900866 
L 240.941273 63.306564 
L 241.215345 114.281995 
L 241.489418 55.855512 
L 241.763491 50.830333 
L 242.037564 80.713833 
L 242.311636 129.695109 
L 242.585709 99.825669 
L 242.859782 84.758257 
L 243.133855 85.544351 
L 243.407927 69.655414 
L 243.682 89.843063 
L 243.956073 50.445838 
L 244.230145 54.889266 
L 244.504218 61.328386 
L 244.778291 100.908999 
L 245.052364 95.701482 
L 245.326436 125.146744 
L 245.600509 51.939219 
L 245.874582 101.459264 
L 246.148655 56.814239 
L 246.422727 61.222976 
L 246.6968 60.042133 
L 246.970873 110.281849 
L 247.244945 45.927807 
L 247.519018 107.578536 
L 247.793091 107.468063 
L 248.067164 128.926095 
L 248.341236 105.723911 
L 248.615309 100.732172 
L 248.889382 74.74625 
L 249.163455 62.842612 
L 249.437527 80.10306 
L 249.7116 47.459975 
L 249.985673 56.207962 
L 250.259745 56.245627 
L 250.533818 55.918827 
L 250.807891 66.570274 
L 251.081964 92.866056 
L 251.356036 101.165764 
L 251.630109 127.268317 
L 251.904182 70.012796 
L 252.178255 103.828143 
L 252.452327 108.324866 
L 252.7264 125.025352 
L 253.000473 50.342398 
L 253.274545 97.933378 
L 253.548618 122.604012 
L 253.822691 47.247307 
L 254.096764 52.441736 
L 254.370836 127.611192 
L 254.918982 49.264827 
L 255.467127 71.60304 
L 255.7412 76.151091 
L 256.015273 52.311564 
L 256.289345 48.879648 
L 256.837491 86.900393 
L 257.111564 45.325246 
L 257.385636 122.582959 
L 257.659709 101.85071 
L 257.933782 122.641407 
L 258.207855 119.31713 
L 258.481927 95.536747 
L 258.756 112.319557 
L 259.304145 75.056036 
L 259.578218 87.811073 
L 259.852291 55.41091 
L 260.126364 50.680554 
L 260.400436 126.010618 
L 260.674509 67.699855 
L 260.948582 97.256131 
L 261.222655 84.047561 
L 261.496727 78.987919 
L 261.7708 79.43089 
L 262.044873 117.311335 
L 262.318945 69.681859 
L 262.593018 71.600164 
L 262.867091 89.055812 
L 263.141164 124.355838 
L 263.415236 74.706673 
L 263.689309 127.857679 
L 264.237455 50.479637 
L 264.511527 129.826136 
L 264.7856 64.950303 
L 265.059673 105.532926 
L 265.333745 100.52664 
L 265.607818 124.129265 
L 265.881891 72.366147 
L 266.155964 63.725408 
L 266.430036 97.82474 
L 266.704109 46.693252 
L 267.252255 128.044386 
L 267.526327 108.164236 
L 267.8004 45.933422 
L 268.074473 56.740034 
L 268.348545 52.35313 
L 268.622618 115.246644 
L 268.896691 64.70896 
L 269.170764 125.609701 
L 269.444836 101.858303 
L 269.718909 119.817118 
L 269.992982 116.093719 
L 270.267055 128.022224 
L 270.541127 102.035109 
L 270.8152 97.275997 
L 271.089273 114.211992 
L 271.363345 77.520338 
L 271.637418 127.476301 
L 271.911491 62.694001 
L 272.185564 120.003742 
L 272.459636 119.731116 
L 272.733709 105.381401 
L 273.007782 72.603628 
L 273.281855 61.884199 
L 273.555927 101.533807 
L 273.83 65.371076 
L 274.652218 127.044502 
L 274.926291 69.503643 
L 275.200364 112.711417 
L 275.474436 121.229401 
L 275.748509 95.271523 
L 276.022582 117.446609 
L 276.570727 43.922127 
L 276.8448 120.583489 
L 277.118873 94.8231 
L 277.392945 113.155397 
L 277.667018 68.661824 
L 278.215164 47.957438 
L 278.489236 117.025638 
L 278.763309 93.324227 
L 279.037382 128.267211 
L 279.585527 73.387689 
L 279.8596 95.748205 
L 280.133673 98.119915 
L 280.407745 61.0097 
L 280.681818 57.24196 
L 280.955891 93.176544 
L 281.229964 67.875027 
L 281.504036 89.487131 
L 281.778109 57.657038 
L 282.052182 116.9433 
L 282.326255 51.427514 
L 282.600327 113.363923 
L 282.8744 69.751433 
L 283.148473 95.101798 
L 283.422545 91.888349 
L 283.696618 115.164268 
L 283.970691 81.393599 
L 284.518836 55.888504 
L 284.792909 109.863939 
L 285.066982 67.044876 
L 285.341055 96.828398 
L 285.615127 90.314885 
L 285.8892 115.237677 
L 286.163273 57.004747 
L 286.437345 66.369969 
L 286.711418 128.424033 
L 286.985491 59.917725 
L 287.259564 70.698389 
L 287.533636 59.065139 
L 287.807709 130.588598 
L 288.081782 55.69369 
L 288.355855 51.310617 
L 288.904 105.360071 
L 289.178073 80.17804 
L 289.452145 128.592121 
L 289.726218 108.629466 
L 290.000291 115.17662 
L 290.274364 91.466568 
L 290.548436 111.163984 
L 290.822509 107.228905 
L 291.096582 95.762003 
L 291.9188 49.660779 
L 292.192873 116.710046 
L 292.466945 104.329082 
L 292.741018 114.892958 
L 293.015091 77.754752 
L 293.289164 60.251358 
L 293.563236 128.038776 
L 293.837309 74.53153 
L 294.111382 113.588083 
L 294.385455 110.916704 
L 294.659527 64.507459 
L 294.9336 68.725988 
L 295.207673 91.250384 
L 295.481745 54.689743 
L 295.755818 128.670092 
L 296.029891 110.873835 
L 296.303964 76.568602 
L 296.578036 76.87747 
L 296.852109 74.682349 
L 297.126182 94.911308 
L 297.400255 71.659325 
L 297.674327 109.217049 
L 297.9484 107.871523 
L 298.222473 49.564957 
L 298.496545 99.280394 
L 298.770618 47.72882 
L 299.044691 67.044631 
L 299.318764 67.405092 
L 299.592836 55.834018 
L 299.866909 65.136114 
L 300.140982 57.698389 
L 300.415055 83.611382 
L 300.689127 58.468609 
L 301.237273 124.926374 
L 301.511345 48.934396 
L 302.059491 98.526222 
L 302.333564 80.383222 
L 302.607636 91.155127 
L 302.881709 61.47492 
L 303.155782 44.732873 
L 303.429855 106.807169 
L 303.703927 108.554555 
L 303.978 60.71232 
L 304.252073 107.06899 
L 304.526145 114.794646 
L 304.800218 54.345736 
L 305.074291 126.307293 
L 305.348364 63.810093 
L 305.622436 78.831287 
L 305.896509 111.628453 
L 306.444655 81.942407 
L 306.718727 82.477517 
L 306.9928 111.5229 
L 307.266873 76.498717 
L 307.815018 116.727249 
L 308.089091 70.031696 
L 308.363164 94.701865 
L 308.637236 106.687787 
L 308.911309 95.662462 
L 309.185382 99.39307 
L 309.459455 88.637226 
L 309.733527 47.674794 
L 310.0076 62.016512 
L 310.281673 56.816412 
L 310.555745 83.446662 
L 310.829818 80.504953 
L 311.103891 104.55798 
L 311.377964 108.389949 
L 311.652036 121.532806 
L 311.926109 94.666061 
L 312.200182 122.085975 
L 312.474255 57.824561 
L 312.748327 120.081023 
L 313.0224 118.765766 
L 313.296473 120.721817 
L 313.570545 53.227407 
L 313.844618 116.73681 
L 314.118691 111.793307 
L 314.392764 116.868852 
L 314.666836 94.313151 
L 314.940909 111.294666 
L 315.214982 82.336689 
L 315.489055 76.068482 
L 315.763127 52.728015 
L 316.0372 92.148957 
L 316.311273 68.345769 
L 316.859418 75.783701 
L 317.407564 110.288865 
L 317.681636 55.618928 
L 318.229782 97.822467 
L 318.503855 117.054756 
L 318.777927 69.967197 
L 319.052 119.748567 
L 319.600145 48.130721 
L 319.874218 117.038442 
L 320.148291 112.335967 
L 320.422364 46.472048 
L 320.696436 84.105687 
L 320.970509 44.832563 
L 321.244582 81.917055 
L 321.518655 45.787555 
L 321.792727 49.286551 
L 322.0668 93.462113 
L 322.340873 63.400219 
L 322.614945 55.217978 
L 322.889018 110.801493 
L 323.163091 123.423933 
L 323.437164 57.063912 
L 323.711236 82.204453 
L 323.985309 117.98373 
L 324.259382 76.743075 
L 324.533455 117.588104 
L 324.807527 77.384103 
L 325.0816 88.958321 
L 325.355673 51.146854 
L 325.629745 119.814437 
L 325.903818 76.561234 
L 326.451964 121.397539 
L 326.726036 55.654263 
L 327.000109 61.982213 
L 327.274182 54.542865 
L 327.548255 101.44347 
L 327.822327 107.677252 
L 328.0964 60.697925 
L 328.370473 63.748668 
L 328.644545 119.628459 
L 329.192691 80.290372 
L 329.466764 105.380094 
L 329.740836 77.185443 
L 330.014909 61.961298 
L 330.288982 88.471668 
L 330.563055 47.647939 
L 330.837127 68.322038 
L 331.1112 51.166728 
L 331.385273 49.594441 
L 331.659345 75.08294 
L 331.933418 112.576017 
L 332.207491 83.115287 
L 332.481564 86.274706 
L 332.755636 49.354972 
L 333.029709 85.35436 
L 333.303782 56.967584 
L 333.577855 70.911732 
L 333.851927 117.62783 
L 334.126 44.294925 
L 334.400073 51.219474 
L 334.674145 46.063386 
L 334.948218 57.96613 
L 335.222291 112.647006 
L 335.222291 112.647006 
" style="fill:none;stroke:#1f77b4;stroke-linecap:square;stroke-width:1.5;"/>
   </g>
   <g id="line2d_14">
    <path clip-path="url(#p6ef8224e7b)" d="M 61.423636 87.16 
L 335.496364 87.16 
" style="fill:none;stroke:#ff0000;stroke-dasharray:7.4,3.2;stroke-dashoffset:0;stroke-width:2;"/>
   </g>
   <g id="line2d_15">
    <path clip-path="url(#p6ef8224e7b)" d="M 192.978545 87.16 
L 203.941455 87.16 
" style="fill:none;stroke:#000000;stroke-linecap:square;stroke-width:2;"/>
   </g>
   <g id="line2d_16">
    <path clip-path="url(#p6ef8224e7b)" d="M 192.978545 43.72 
L 203.941455 43.72 
" style="fill:none;stroke:#000000;stroke-linecap:square;stroke-width:2;"/>
   </g>
   <g id="line2d_17">
    <path clip-path="url(#p6ef8224e7b)" d="M 198.46 87.16 
L 198.46 43.72 
" style="fill:none;stroke:#000000;stroke-linecap:square;stroke-width:2;"/>
   </g>
   <g id="line2d_18">
    <path clip-path="url(#p6ef8224e7b)" d="M 192.978545 159.56 
L 203.941455 159.56 
" style="fill:none;stroke:#000000;stroke-linecap:square;stroke-width:2;"/>
   </g>
   <g id="line2d_19">
    <path clip-path="url(#p6ef8224e7b)" d="M 198.46 159.56 
L 198.46 87.16 
" style="fill:none;stroke:#000000;stroke-linecap:square;stroke-width:2;"/>
   </g>
   <g id="patch_3">
    <path d="M 47.72 174.04 
L 47.72 14.76 
" style="fill:none;stroke:#000000;stroke-linecap:square;stroke-linejoin:miter;stroke-width:0.8;"/>
   </g>
   <g id="patch_4">
    <path d="M 349.2 174.04 
L 349.2 14.76 
" style="fill:none;stroke:#000000;stroke-linecap:square;stroke-linejoin:miter;stroke-width:0.8;"/>
   </g>
   <g id="patch_5">
    <path d="M 47.72 174.04 
L 349.2 174.04 
" style="fill:none;stroke:#000000;stroke-linecap:square;stroke-linejoin:miter;stroke-width:0.8;"/>
   </g>
   <g id="patch_6">
    <path d="M 47.72 14.76 
L 349.2 14.76 
" style="fill:none;stroke:#000000;stroke-linecap:square;stroke-linejoin:miter;stroke-width:0.8;"/>
   </g>
   <g id="text_15">
    <g id="patch_7">
     <path d="M 205.422909 71.519688 
L 235.015097 71.519688 
L 235.015097 53.841563 
L 205.422909 53.841563 
z
" style="fill:#ffffff;opacity:0.8;stroke:#000000;stroke-linejoin:miter;"/>
    </g>
    <!-- gain -->
    <g transform="translate(209.422909 65.44)scale(0.1 -0.1)">
     <use xlink:href="#DejaVuSans-103"/>
     <use x="63.476562" xlink:href="#DejaVuSans-97"/>
     <use x="124.755859" xlink:href="#DejaVuSans-105"/>
     <use x="152.539062" xlink:href="#DejaVuSans-110"/>
    </g>
   </g>
   <g id="text_16">
    <g id="patch_8">
     <path d="M 205.422909 129.439688 
L 241.865097 129.439688 
L 241.865097 111.761563 
L 205.422909 111.761563 
z
" style="fill:#ffffff;opacity:0.8;stroke:#000000;stroke-linejoin:miter;"/>
    </g>
    <!-- offset -->
    <g transform="translate(209.422909 123.36)scale(0.1 -0.1)">
     <defs>
      <path d="M 30.609375 48.390625 
Q 23.390625 48.390625 19.1875 42.75 
Q 14.984375 37.109375 14.984375 27.296875 
Q 14.984375 17.484375 19.15625 11.84375 
Q 23.34375 6.203125 30.609375 6.203125 
Q 37.796875 6.203125 41.984375 11.859375 
Q 46.1875 17.53125 46.1875 27.296875 
Q 46.1875 37.015625 41.984375 42.703125 
Q 37.796875 48.390625 30.609375 48.390625 
z
M 30.609375 56 
Q 42.328125 56 49.015625 48.375 
Q 55.71875 40.765625 55.71875 27.296875 
Q 55.71875 13.875 49.015625 6.21875 
Q 42.328125 -1.421875 30.609375 -1.421875 
Q 18.84375 -1.421875 12.171875 6.21875 
Q 5.515625 13.875 5.515625 27.296875 
Q 5.515625 40.765625 12.171875 48.375 
Q 18.84375 56 30.609375 56 
z
" id="DejaVuSans-111"/>
      <path d="M 37.109375 75.984375 
L 37.109375 68.5 
L 28.515625 68.5 
Q 23.6875 68.5 21.796875 66.546875 
Q 19.921875 64.59375 19.921875 59.515625 
L 19.921875 54.6875 
L 34.71875 54.6875 
L 34.71875 47.703125 
L 19.921875 47.703125 
L 19.921875 0 
L 10.890625 0 
L 10.890625 47.703125 
L 2.296875 47.703125 
L 2.296875 54.6875 
L 10.890625 54.6875 
L 10.890625 58.5 
Q 10.890625 67.625 15.140625 71.796875 
Q 19.390625 75.984375 28.609375 75.984375 
z
" id="DejaVuSans-102"/>
     </defs>
     <use xlink:href="#DejaVuSans-111"/>
     <use x="61.181641" xlink:href="#DejaVuSans-102"/>
     <use x="96.386719" xlink:href="#DejaVuSans-102"/>
     <use x="131.591797" xlink:href="#DejaVuSans-115"/>
     <use x="183.691406" xlink:href="#DejaVuSans-101"/>
     <use x="245.214844" xlink:href="#DejaVuSans-116"/>
    </g>
   </g>
  </g>
 </g>
 <defs>
  <clipPath id="p6ef8224e7b">
   <rect height="159.28" width="301.48" x="47.72" y="14.76"/>
  </clipPath>
 </defs>
</svg>
